<mxfile host="app.diagrams.net" modified="2023-09-13T07:11:49.786Z" agent="Mozilla/5.0 (Windows NT 10.0; Win64; x64; rv:109.0) Gecko/20100101 Firefox/117.0" etag="BQoGqZ-7rgxplE_s_IgE" version="21.6.8" type="device">
  <diagram name="Page-1" id="VZIIqRRXdtm2IghGHygO">
    <mxGraphModel dx="722" dy="367" grid="1" gridSize="10" guides="1" tooltips="1" connect="1" arrows="1" fold="1" page="1" pageScale="1" pageWidth="1100" pageHeight="850" math="0" shadow="0">
      <root>
        <mxCell id="0" />
        <mxCell id="1" parent="0" />
        <mxCell id="T8mqCE39lt7wxCbaXMMT-1" value="" style="shape=table;startSize=0;container=1;collapsible=0;childLayout=tableLayout;" vertex="1" parent="1">
          <mxGeometry x="84" y="49" width="240" height="120" as="geometry" />
        </mxCell>
        <mxCell id="T8mqCE39lt7wxCbaXMMT-2" value="" style="shape=tableRow;horizontal=0;startSize=0;swimlaneHead=0;swimlaneBody=0;strokeColor=inherit;top=0;left=0;bottom=0;right=0;collapsible=0;dropTarget=0;fillColor=none;points=[[0,0.5],[1,0.5]];portConstraint=eastwest;" vertex="1" parent="T8mqCE39lt7wxCbaXMMT-1">
          <mxGeometry width="240" height="40" as="geometry" />
        </mxCell>
        <mxCell id="T8mqCE39lt7wxCbaXMMT-3" value="" style="shape=partialRectangle;html=1;whiteSpace=wrap;connectable=0;strokeColor=inherit;overflow=hidden;fillColor=none;top=0;left=0;bottom=0;right=0;pointerEvents=1;" vertex="1" parent="T8mqCE39lt7wxCbaXMMT-2">
          <mxGeometry width="60" height="40" as="geometry">
            <mxRectangle width="60" height="40" as="alternateBounds" />
          </mxGeometry>
        </mxCell>
        <mxCell id="T8mqCE39lt7wxCbaXMMT-4" value="" style="shape=partialRectangle;html=1;whiteSpace=wrap;connectable=0;strokeColor=inherit;overflow=hidden;fillColor=none;top=0;left=0;bottom=0;right=0;pointerEvents=1;" vertex="1" parent="T8mqCE39lt7wxCbaXMMT-2">
          <mxGeometry x="60" width="60" height="40" as="geometry">
            <mxRectangle width="60" height="40" as="alternateBounds" />
          </mxGeometry>
        </mxCell>
        <mxCell id="T8mqCE39lt7wxCbaXMMT-5" value="" style="shape=partialRectangle;html=1;whiteSpace=wrap;connectable=0;strokeColor=inherit;overflow=hidden;fillColor=none;top=0;left=0;bottom=0;right=0;pointerEvents=1;" vertex="1" parent="T8mqCE39lt7wxCbaXMMT-2">
          <mxGeometry x="120" width="60" height="40" as="geometry">
            <mxRectangle width="60" height="40" as="alternateBounds" />
          </mxGeometry>
        </mxCell>
        <mxCell id="T8mqCE39lt7wxCbaXMMT-6" value="" style="shape=partialRectangle;html=1;whiteSpace=wrap;connectable=0;strokeColor=inherit;overflow=hidden;fillColor=none;top=0;left=0;bottom=0;right=0;pointerEvents=1;" vertex="1" parent="T8mqCE39lt7wxCbaXMMT-2">
          <mxGeometry x="180" width="60" height="40" as="geometry">
            <mxRectangle width="60" height="40" as="alternateBounds" />
          </mxGeometry>
        </mxCell>
        <mxCell id="T8mqCE39lt7wxCbaXMMT-7" value="" style="shape=tableRow;horizontal=0;startSize=0;swimlaneHead=0;swimlaneBody=0;strokeColor=inherit;top=0;left=0;bottom=0;right=0;collapsible=0;dropTarget=0;fillColor=none;points=[[0,0.5],[1,0.5]];portConstraint=eastwest;" vertex="1" parent="T8mqCE39lt7wxCbaXMMT-1">
          <mxGeometry y="40" width="240" height="40" as="geometry" />
        </mxCell>
        <mxCell id="T8mqCE39lt7wxCbaXMMT-8" value="" style="shape=partialRectangle;html=1;whiteSpace=wrap;connectable=0;strokeColor=inherit;overflow=hidden;fillColor=none;top=0;left=0;bottom=0;right=0;pointerEvents=1;" vertex="1" parent="T8mqCE39lt7wxCbaXMMT-7">
          <mxGeometry width="60" height="40" as="geometry">
            <mxRectangle width="60" height="40" as="alternateBounds" />
          </mxGeometry>
        </mxCell>
        <mxCell id="T8mqCE39lt7wxCbaXMMT-9" value="" style="shape=partialRectangle;html=1;whiteSpace=wrap;connectable=0;strokeColor=inherit;overflow=hidden;fillColor=none;top=0;left=0;bottom=0;right=0;pointerEvents=1;" vertex="1" parent="T8mqCE39lt7wxCbaXMMT-7">
          <mxGeometry x="60" width="60" height="40" as="geometry">
            <mxRectangle width="60" height="40" as="alternateBounds" />
          </mxGeometry>
        </mxCell>
        <mxCell id="T8mqCE39lt7wxCbaXMMT-10" value="" style="shape=partialRectangle;html=1;whiteSpace=wrap;connectable=0;strokeColor=inherit;overflow=hidden;fillColor=none;top=0;left=0;bottom=0;right=0;pointerEvents=1;" vertex="1" parent="T8mqCE39lt7wxCbaXMMT-7">
          <mxGeometry x="120" width="60" height="40" as="geometry">
            <mxRectangle width="60" height="40" as="alternateBounds" />
          </mxGeometry>
        </mxCell>
        <mxCell id="T8mqCE39lt7wxCbaXMMT-11" value="" style="shape=partialRectangle;html=1;whiteSpace=wrap;connectable=0;strokeColor=inherit;overflow=hidden;fillColor=none;top=0;left=0;bottom=0;right=0;pointerEvents=1;" vertex="1" parent="T8mqCE39lt7wxCbaXMMT-7">
          <mxGeometry x="180" width="60" height="40" as="geometry">
            <mxRectangle width="60" height="40" as="alternateBounds" />
          </mxGeometry>
        </mxCell>
        <mxCell id="T8mqCE39lt7wxCbaXMMT-12" value="" style="shape=tableRow;horizontal=0;startSize=0;swimlaneHead=0;swimlaneBody=0;strokeColor=inherit;top=0;left=0;bottom=0;right=0;collapsible=0;dropTarget=0;fillColor=none;points=[[0,0.5],[1,0.5]];portConstraint=eastwest;" vertex="1" parent="T8mqCE39lt7wxCbaXMMT-1">
          <mxGeometry y="80" width="240" height="40" as="geometry" />
        </mxCell>
        <mxCell id="T8mqCE39lt7wxCbaXMMT-13" value="" style="shape=partialRectangle;html=1;whiteSpace=wrap;connectable=0;strokeColor=inherit;overflow=hidden;fillColor=none;top=0;left=0;bottom=0;right=0;pointerEvents=1;" vertex="1" parent="T8mqCE39lt7wxCbaXMMT-12">
          <mxGeometry width="60" height="40" as="geometry">
            <mxRectangle width="60" height="40" as="alternateBounds" />
          </mxGeometry>
        </mxCell>
        <mxCell id="T8mqCE39lt7wxCbaXMMT-14" value="" style="shape=partialRectangle;html=1;whiteSpace=wrap;connectable=0;strokeColor=inherit;overflow=hidden;fillColor=none;top=0;left=0;bottom=0;right=0;pointerEvents=1;" vertex="1" parent="T8mqCE39lt7wxCbaXMMT-12">
          <mxGeometry x="60" width="60" height="40" as="geometry">
            <mxRectangle width="60" height="40" as="alternateBounds" />
          </mxGeometry>
        </mxCell>
        <mxCell id="T8mqCE39lt7wxCbaXMMT-15" value="" style="shape=partialRectangle;html=1;whiteSpace=wrap;connectable=0;strokeColor=inherit;overflow=hidden;fillColor=none;top=0;left=0;bottom=0;right=0;pointerEvents=1;" vertex="1" parent="T8mqCE39lt7wxCbaXMMT-12">
          <mxGeometry x="120" width="60" height="40" as="geometry">
            <mxRectangle width="60" height="40" as="alternateBounds" />
          </mxGeometry>
        </mxCell>
        <mxCell id="T8mqCE39lt7wxCbaXMMT-16" value="" style="shape=partialRectangle;html=1;whiteSpace=wrap;connectable=0;strokeColor=inherit;overflow=hidden;fillColor=none;top=0;left=0;bottom=0;right=0;pointerEvents=1;" vertex="1" parent="T8mqCE39lt7wxCbaXMMT-12">
          <mxGeometry x="180" width="60" height="40" as="geometry">
            <mxRectangle width="60" height="40" as="alternateBounds" />
          </mxGeometry>
        </mxCell>
        <mxCell id="T8mqCE39lt7wxCbaXMMT-17" value="" style="ellipse;whiteSpace=wrap;html=1;aspect=fixed;" vertex="1" parent="1">
          <mxGeometry x="24" y="184" width="20" height="20" as="geometry" />
        </mxCell>
        <mxCell id="T8mqCE39lt7wxCbaXMMT-18" value="" style="ellipse;whiteSpace=wrap;html=1;aspect=fixed;" vertex="1" parent="1">
          <mxGeometry x="234" y="99" width="20" height="20" as="geometry" />
        </mxCell>
        <mxCell id="T8mqCE39lt7wxCbaXMMT-19" value="" style="ellipse;whiteSpace=wrap;html=1;aspect=fixed;" vertex="1" parent="1">
          <mxGeometry x="154" y="44" width="20" height="20" as="geometry" />
        </mxCell>
        <mxCell id="T8mqCE39lt7wxCbaXMMT-20" value="" style="endArrow=classic;html=1;rounded=0;exitX=0;exitY=1;exitDx=0;exitDy=0;entryX=0.495;entryY=0.016;entryDx=0;entryDy=0;entryPerimeter=0;" edge="1" parent="1" source="T8mqCE39lt7wxCbaXMMT-18" target="T8mqCE39lt7wxCbaXMMT-12">
          <mxGeometry width="50" height="50" relative="1" as="geometry">
            <mxPoint x="384" y="239" as="sourcePoint" />
            <mxPoint x="434" y="189" as="targetPoint" />
          </mxGeometry>
        </mxCell>
        <mxCell id="T8mqCE39lt7wxCbaXMMT-21" value="" style="endArrow=classic;html=1;rounded=0;exitX=0;exitY=1;exitDx=0;exitDy=0;entryX=0.253;entryY=0.998;entryDx=0;entryDy=0;entryPerimeter=0;" edge="1" parent="1" source="T8mqCE39lt7wxCbaXMMT-19" target="T8mqCE39lt7wxCbaXMMT-2">
          <mxGeometry width="50" height="50" relative="1" as="geometry">
            <mxPoint x="164" y="114" as="sourcePoint" />
            <mxPoint x="214" y="64" as="targetPoint" />
          </mxGeometry>
        </mxCell>
        <mxCell id="T8mqCE39lt7wxCbaXMMT-22" value="" style="endArrow=classic;html=1;rounded=0;entryX=-0.002;entryY=0.998;entryDx=0;entryDy=0;entryPerimeter=0;" edge="1" parent="1" target="T8mqCE39lt7wxCbaXMMT-12">
          <mxGeometry width="50" height="50" relative="1" as="geometry">
            <mxPoint x="104" y="189" as="sourcePoint" />
            <mxPoint x="194" y="179" as="targetPoint" />
          </mxGeometry>
        </mxCell>
        <mxCell id="T8mqCE39lt7wxCbaXMMT-23" value="Offset (x,y)" style="text;html=1;strokeColor=none;fillColor=none;align=center;verticalAlign=middle;whiteSpace=wrap;rounded=0;" vertex="1" parent="1">
          <mxGeometry x="94" y="179" width="60" height="30" as="geometry" />
        </mxCell>
        <mxCell id="T8mqCE39lt7wxCbaXMMT-24" value="C" style="text;html=1;strokeColor=none;fillColor=none;align=center;verticalAlign=middle;whiteSpace=wrap;rounded=0;" vertex="1" parent="1">
          <mxGeometry x="4" y="164" width="60" height="30" as="geometry" />
        </mxCell>
        <mxCell id="T8mqCE39lt7wxCbaXMMT-25" value="A" style="text;html=1;strokeColor=none;fillColor=none;align=center;verticalAlign=middle;whiteSpace=wrap;rounded=0;" vertex="1" parent="1">
          <mxGeometry x="134" y="24" width="60" height="30" as="geometry" />
        </mxCell>
        <mxCell id="T8mqCE39lt7wxCbaXMMT-27" value="B" style="text;html=1;strokeColor=none;fillColor=none;align=center;verticalAlign=middle;whiteSpace=wrap;rounded=0;" vertex="1" parent="1">
          <mxGeometry x="214" y="79" width="60" height="30" as="geometry" />
        </mxCell>
        <mxCell id="T8mqCE39lt7wxCbaXMMT-28" value="" style="endArrow=classic;html=1;rounded=0;" edge="1" parent="1">
          <mxGeometry width="50" height="50" relative="1" as="geometry">
            <mxPoint x="197.32999999999998" y="189" as="sourcePoint" />
            <mxPoint x="143.9966666666666" y="149" as="targetPoint" />
          </mxGeometry>
        </mxCell>
        <mxCell id="T8mqCE39lt7wxCbaXMMT-29" value="Scale (y)" style="text;html=1;strokeColor=none;fillColor=none;align=center;verticalAlign=middle;whiteSpace=wrap;rounded=0;" vertex="1" parent="1">
          <mxGeometry x="194" y="179" width="60" height="30" as="geometry" />
        </mxCell>
        <mxCell id="T8mqCE39lt7wxCbaXMMT-30" value="" style="endArrow=classic;html=1;rounded=0;entryX=0.884;entryY=1.003;entryDx=0;entryDy=0;entryPerimeter=0;" edge="1" parent="1" target="T8mqCE39lt7wxCbaXMMT-12">
          <mxGeometry width="50" height="50" relative="1" as="geometry">
            <mxPoint x="354" y="139" as="sourcePoint" />
            <mxPoint x="404" y="89" as="targetPoint" />
          </mxGeometry>
        </mxCell>
        <mxCell id="T8mqCE39lt7wxCbaXMMT-31" value="Scale (x)" style="text;html=1;strokeColor=none;fillColor=none;align=center;verticalAlign=middle;whiteSpace=wrap;rounded=0;" vertex="1" parent="1">
          <mxGeometry x="344" y="114" width="60" height="30" as="geometry" />
        </mxCell>
        <mxCell id="T8mqCE39lt7wxCbaXMMT-32" value="&lt;font style=&quot;font-size: 18px;&quot;&gt;Spatial Hashing and Quantization&lt;/font&gt;" style="text;html=1;strokeColor=none;fillColor=none;align=center;verticalAlign=middle;whiteSpace=wrap;rounded=0;" vertex="1" parent="1">
          <mxGeometry x="4" y="4" width="180" height="40" as="geometry" />
        </mxCell>
      </root>
    </mxGraphModel>
  </diagram>
</mxfile>
